# xmcd
#
# Track frame offsets:
#	150
#	16123
#	30556
#	42725
#	58159
#	75639
#	96918
#	119104
#	132538
#
# Disc length: 1985 seconds
# Revision: 0
# Processed by: cddbd v1.5.2PL0 Copyright (c) Steve Scherf et al.
# Submitted via: dBpowerAMP V12.0
#
DISCID=7d07bf09
DTITLE=Don Morrison's Raging Thirst - Don Morrison's Raging Thirst
DYEAR=2015
DGENRE=Blues
TTITLE0=I Heard The Devil Calll My Name
TTITLE1=In Australia
TTITLE2=Love Is
TTITLE3=Dreams
TTITLE4=Stuck In Neutral
TTITLE5=Brunswick Street Strut
TTITLE6=Happy Birthday To Me
TTITLE7=Ride
TTITLE8=Fried By Dope
EXTD=
EXTT0=
EXTT1=
EXTT2=
EXTT3=
EXTT4=
EXTT5=
EXTT6=
EXTT7=
EXTT8=
PLAYORDER=
